<?xml version="1.0" encoding="UTF-8"?>
<svg viewBox="0 0 1434.1331 1779.6895" xmlns="http://www.w3.org/2000/svg" xmlns:xlink="http://www.w3.org/1999/xlink">
 <defs>
  <filter id="c">
   <feGaussianBlur stdDeviation=".75227"/>
  </filter>
  <filter id="x">
   <feGaussianBlur stdDeviation=".34987"/>
  </filter>
  <filter id="ag" x="-.09534" y="-.11904" width="1.1907" height="1.2381">
   <feGaussianBlur stdDeviation="1.15211"/>
  </filter>
  <filter id="y" x="-.42826" y="-.11516" width="1.8565" height="1.2303">
   <feGaussianBlur stdDeviation="6.89064"/>
  </filter>
  <filter id="al" x="-.41005" y="-.11655" width="1.8201" height="1.2331">
   <feGaussianBlur stdDeviation="6.04009"/>
  </filter>
  <filter id="ai" x="-.60868" y="-.61316" width="2.2174" height="2.2263">
   <feGaussianBlur stdDeviation="4.50592"/>
  </filter>
  <filter id="ah" x="-.32559" y="-.38869" width="1.6512" height="1.7774">
   <feGaussianBlur stdDeviation="6.52441"/>
  </filter>
  <filter id="ak" x="-.07886" y="-.12266" width="1.1577" height="1.2453">
   <feGaussianBlur stdDeviation="5.86645"/>
  </filter>
  <filter id="aj" x="-.02898" y="-.13963" width="1.058" height="1.2793">
   <feGaussianBlur stdDeviation="3.22889"/>
  </filter>
  <filter id="af" x="-.49393" y="-.11591" width="1.9879" height="1.2318">
   <feGaussianBlur stdDeviation="6.48205"/>
  </filter>
  <filter id="ad" x="-.25887" y="-.26933" width="1.5178" height="1.5387">
   <feGaussianBlur stdDeviation="4.65232"/>
  </filter>
  <filter id="ac" x="-.23872" y="-.2413" width="1.4774" height="1.4826">
   <feGaussianBlur stdDeviation="4.18187"/>
  </filter>
  <filter id="ab" x="-.35677" y="-.10849" width="1.7135" height="1.217">
   <feGaussianBlur stdDeviation="6.88879"/>
  </filter>
  <filter id="aa" x="-.10611" y="-.04739" width="1.2122" height="1.0948">
   <feGaussianBlur stdDeviation="5.42048"/>
  </filter>
  <filter id="z" x="-.16553" y="-.4363" width="1.331" height="1.8726">
   <feGaussianBlur stdDeviation="5.99797"/>
  </filter>
  <filter id="i" x="-.1041" y="-.43508" width="1.2082" height="1.8702">
   <feGaussianBlur stdDeviation="2.42521"/>
  </filter>
  <filter id="b" x="-1.0766" y="-.38347" width="3.1531" height="1.7669">
   <feGaussianBlur stdDeviation="6.83078"/>
  </filter>
  <filter id="h" x="-.30216" y="-.3944" width="1.6043" height="1.7888">
   <feGaussianBlur stdDeviation="3.7135"/>
  </filter>
  <filter id="ae" x="-.23376" y="-.24658" width="1.4675" height="1.4932">
   <feGaussianBlur stdDeviation="3.41529"/>
  </filter>
  <filter id="j" x="-.24" y="-.24" width="1.48" height="1.48">
   <feGaussianBlur stdDeviation="2.9"/>
  </filter>
  <linearGradient id="d">
   <stop stop-color="#520" offset="0"/>
   <stop stop-color="#520" stop-opacity="0" offset="1"/>
  </linearGradient>
  <linearGradient id="a">
   <stop stop-color="#ffead0" stop-opacity=".40217" offset="0"/>
   <stop stop-color="#fff" stop-opacity="0" offset="1"/>
  </linearGradient>
  <linearGradient id="e">
   <stop stop-color="#c14e00" offset="0"/>
   <stop stop-color="#aa4501" offset=".31592"/>
   <stop stop-color="#b94f08" offset=".63184"/>
   <stop stop-color="#c16629" offset="1"/>
  </linearGradient>
  <linearGradient id="g" x1="478.92" x2="554.23" y1="1027.7" y2="510.1" gradientUnits="userSpaceOnUse">
   <stop stop-color="#aa4501" offset="0"/>
   <stop stop-color="#aa4501" offset=".31592"/>
   <stop stop-color="#b94f08" offset=".68006"/>
   <stop stop-color="#c16629" offset="1"/>
  </linearGradient>
  <linearGradient id="w" x1="1205.6" x2="1238.1" y1="700.76" y2="712.85" gradientUnits="userSpaceOnUse">
   <stop stop-color="#a40" offset="0"/>
   <stop stop-color="#aa6200" offset=".40466"/>
   <stop stop-color="#e8b20a" offset="1"/>
  </linearGradient>
  <linearGradient id="t" x1="-62.986" x2="-54.54" y1="306.7" y2="254.53" gradientUnits="userSpaceOnUse">
   <stop stop-color="#ca2828" offset="0"/>
   <stop stop-color="#a00" offset=".12295"/>
   <stop stop-color="#ff9c9c" offset="1"/>
  </linearGradient>
  <linearGradient id="o" x1="1211.5" x2="1213.2" y1="1108.3" y2="620.1" gradientUnits="userSpaceOnUse">
   <stop stop-color="#aa4501" offset="0"/>
   <stop stop-color="#aa4501" offset=".31592"/>
   <stop stop-color="#b94f08" offset=".63184"/>
   <stop stop-color="#c16629" offset="1"/>
  </linearGradient>
  <linearGradient id="f" x1="490.02" x2="513.82" y1="923.9" y2="854.83" gradientUnits="userSpaceOnUse" xlink:href="#d"/>
  <linearGradient id="v" x1="814.52" x2="853.86" y1="970.83" y2="621.57" gradientUnits="userSpaceOnUse" xlink:href="#e"/>
  <linearGradient id="u" x1="83.713" x2="135.71" y1="201.57" y2="320.2" gradientUnits="userSpaceOnUse" xlink:href="#a"/>
  <linearGradient id="s" x1="429.24" x2="404.93" y1="-59.033" y2="103.38" gradientUnits="userSpaceOnUse" xlink:href="#a"/>
  <linearGradient id="r" x1="205.22" x2="288.16" y1="-9.9813" y2="168.03" gradientUnits="userSpaceOnUse" xlink:href="#a"/>
  <linearGradient id="q" x1="413.38" x2="401.95" y1="43.993" y2="180.23" gradientUnits="userSpaceOnUse" xlink:href="#a"/>
  <linearGradient id="p" x1="1281" x2="1268.9" y1="614.7" y2="732.79" gradientUnits="userSpaceOnUse" xlink:href="#a"/>
  <linearGradient id="n" x1="1182.6" x2="1203.9" y1="973.05" y2="890.88" gradientUnits="userSpaceOnUse" xlink:href="#d"/>
  <linearGradient id="m" x1="814.52" x2="860.1" y1="970.83" y2="625.73" gradientTransform="matrix(.96711 -.25435 .25435 .96711 -47.898 62.543)" gradientUnits="userSpaceOnUse" xlink:href="#e"/>
  <linearGradient id="l" x1="281.45" x2="302.02" y1="449.11" y2="449.45" gradientTransform="matrix(.96711 -.25435 .25435 .96711 -48.27 62.254)" gradientUnits="userSpaceOnUse" xlink:href="#d"/>
  <linearGradient id="k" x1="435.25" x2="424.12" y1="230.85" y2="293.68" gradientUnits="userSpaceOnUse" xlink:href="#a"/>
 </defs>
 <g transform="translate(89.073 412.63)">
  <path d="m353.09 342.46c27.077-14.338 45.071-22.506 48.224-18.517 4.9646 6.2812-29.584 52.144-66.614 60.562 43.268-25.953 45.682-42.575 43.056-45.603-3.2371-3.7338-8.1507-2.1121-24.666 3.5581z" fill="#500" stroke="#520" stroke-width="4.5"/>
  <g transform="matrix(-.98768 -.15649 -.15649 .98768 715.58 47.453)" filter="url(#x)">
   <path d="m459.17 225.63c9.8647-11.231 61.465-31.236 64.928 3.332 1.562 15.592-5.9018 14.549-19.666 31.154-13.248 15.983-40.238 21.295-48.157 1.3727-8.3132-20.915-5.5334-26.262 2.8953-35.859z" fill="#d17231" stroke="#803300" stroke-width="3.7"/>
   <path transform="matrix(1.1405 -.39638 .39638 1.1405 441.85 -87.426)" d="m-39.156 271.14c0 5.9295-6.7219 5.7001-15.093 5.7001s-15.221 0.22944-15.221-5.7001 6.7861-10.736 15.157-10.736 15.157 4.8068 15.157 10.736z" fill="#a40" filter="url(#h)" opacity=".82"/>
   <g transform="translate(1.6841 -11.789)" fill="#520">
    <path d="m467.55 266.22c-5.1212-27.632 26.47-40.339 41.221-17.19 0 0-14.11-9.5713-23.828-6.7773-12.93 3.7175-15.425 11.022-17.393 23.967z"/>
    <path d="m484.64 241.5s5.7301-2.679 9.6372 1.6899c1.0299 4.642-0.68332 10.779-2.3352 13.718 0 0 0.9012-8.689-0.94885-11.787-0.62293-1.043-6.0965-4.2475-6.3532-3.6213z"/>
   </g>
   <path d="m496.84 213.24c-18.905 1.9823-31.344 11.245-31.344 11.245 21.559-8.9154 46.876-15.42 55.914 1.9798 0 0-2.0189-7.0608-7.677-10.516s-13.001-2.9027-16.893-2.709z" fill="#fff" filter="url(#i)"/>
  </g>
  <g transform="translate(-65.587 -38.075)">
   <path d="m477.6 730.35c-5.1442 44.244-108.48 238.66-64.997 393.83 3.0869 9.1663-1.9049 19.679 1.0616 28 1.9452 5.4563 6.5588 12.034 7.8761 17.319 14.958 60.012 11.348 58.455 16.327 77.535 4.2711 9.5056-7.9169 25.025-13.896 38.115-6.9381 15.19-8.1492 25.494-8.572 32.966 12.868 11.61 79.632 6.6856 81.341 2.77-1.226-8.5112-7.4964-25.766-14.5-38.467-5.3687-9.7365-11.733-15.386-13.178-20.893-18.689-71.9-23.936-95.424-23.843-111.09-3.748-134.87 118.2-271.67 124.55-386.35l-92.167-33.734z" fill="url(#g)" stroke="url(#f)" stroke-width="4.216"/>
   <path d="m431.68 1274.7c-3.5306 6.0351-13.094 24.056-14.227 41.842 6.248 8.7283 57.14 7.4093 76.907 3.6586-0.42077-12.472-11.368-33.521-18.58-44.259-15.739 1.635-28.361 1.9947-44.1-1.2413z"/>
   <path transform="matrix(.79831 -.40401 .40401 .79831 -445.85 442.31)" d="m430.19 1307.6c-2.5218-1.5616 5.046-14.092 15.924-21.902 4.367-3.1383 10.277-4.8868 12.565-4.7056 1.9003 0.1504 3.0983 1.1197 3.8116 2.3195 0.30637 1.546-1.4877 4.0907-12.173 10.181-10.176 5.8-18.138 16.049-20.128 14.108z" fill="#fff" filter="url(#c)"/>
  </g>
  <path d="m1192.4 738.77c-1.087-5.0209-17.001-14.815-17.001-22.285-5e-4 -10.674 23.022-17.231 28.137-23.493 2.9568-3.6201 19.223-26.572 23.246-24.582 2.4736 1.2231 10.176 20.295 10.624 21.471 0.6806 1.7715 1.5248 5.9753-2.4337 7.8689-1.1758 0.56248-3.7395 0.82347-3.2965 1.9989 0.9173 2.434 6.2726 0.80167 6.9369 4.0787 2.2446 11.072 2.2295 14.222-6.034 25.627-0.8033 1.1088-4.5585 4.1721-5.2406 5.3468-0.5458 0.93982 2.2268 3.5206 1.6812 4.4604l-3.2746 5.6387c-11.017 18.972-32.437 2.7139-33.345-6.1296z" fill="url(#w)" stroke="#520" stroke-width="3.8227"/>
  <g transform="translate(-120)">
   <path d="m1070.4 698.16c-69.154 22.908-189.35 189.04 20.097 399.53 102.31 128.2-31.264 138.73-45.11 173.65-11.785 16.311-24.307 18.845-36.092 40.001 12.868 11.61 62.443 11.971 95.924 6.2325 1.7404-12.692-3.47-25.383-6.7991-38.075-9.1864-64.217 74.82-57.543 71.822-126.64l-22.545-56.098c-3.7481-134.87 8.525-250.19 14.871-364.87l-92.168-33.734z" fill="#a40" stroke="#520" stroke-width="4.216"/>
   <path d="m1048.2 1270.6c-11.065 15.453-24.648 19.775-35.713 39.787 12.081 10.812 59.375 11.089 90.81 5.3938 1.634-11.958-4.7544-32.035-7.88-43.949-15.739 1.635-31.478 2.0042-47.216-1.2318z"/>
   <path d="m1025 1303.6c-2.5217-1.5616 5.0461-14.092 15.924-21.902 4.367-3.1383 10.277-4.8868 12.565-4.7056 1.9003 0.1504 3.0983 1.1197 3.8116 2.3195 0.3064 1.546-1.4877 4.0907-12.173 10.181-10.176 5.8-18.138 16.049-20.128 14.108z" fill="#fff" filter="url(#c)"/>
  </g>
  <path d="m393.53 9.2188c-32.885 0.15875-52.781 16.455-62.531 41.062-21.523 30.927-28.733 44.597-50.969 68.844-26.167 4.9853-52.231 15.79-59.125 26.031-0.96211 8.0742 33.239 9.4263 49.781 15.656l-62.062 90.781c-15.437-3.93-29.902-30.633-30.75-26.938-2.2612 12.14-2.7749 5.6433-1.5312 16.031 5.5566 16.639-157.75 48.046-235.88 50.594 113.64 133.94 309.08 104.43 454.38 34.075 14.777-7.8338 5.6725 3.5429 4.083 7.059-41.476 60.476-143.23 83.972-207.29 86.081-20.49 2.0357-14.589 12.426 3.2188 16.062 29.602 6.0449 82.782 2.6555 119.64-5.1156 12.451-2.6249 13.426-4.4687 15.936 6.757-12.425 74.477-17.77 143.26-18.69 229.72 3.19 44.317 8.5263 95.204 47.5 146.12 23 30.051 46.186 58.808 88.532 90.327 94.041 25.303 137.36 57.694 445.34 43.125 117.29 5.0638 147.67 34.207 203.59 29.562 36.652-17.551 109.55-76.079 118.66-115.56 7.6678-25.708 3.3544-88.843-21.656-144.22-73.033-71.263-187.67-35.96-275.78-45.812-49.977-5.5886-86.937-9.2835-114.29-14.188-91.903-16.475-85.161-15.108-156.05-37.937-119.09-38.354-152.69-87.977-160.07-225.56-12.242-106.66-16.571-212.69-19.219-317.44 2.3285-10.303-0.57749-38.066-11.5-47.062-15.737-12.962-37.704-18.186-63.281-18.062z" fill="url(#v)" stroke="#520" stroke-width="4.8"/>
  <path transform="matrix(.76423 0 0 .76423 101.71 67.213)" d="m267.11 189.86c0 44.691-34.661 63.67-79.353 63.67s-82.489-18.979-82.489-63.67 36.23-80.921 80.921-80.921 80.921 36.23 80.921 80.921z" fill="#fff" stroke="#000" stroke-width="4.9"/>
  <path transform="matrix(.76423 0 0 .76423 95.678 20.957)" d="m436.84 268.81c0 41.058-34.852 56.307-75.91 56.307s-72.774-15.249-72.774-56.307 33.284-74.342 74.342-74.342 74.342 33.284 74.342 74.342z" fill="#fff" stroke="#000" stroke-width="4.9"/>
  <path d="m177.42 248.36c9.0662-4.6343 10.223 21.354 52.216 31.448 3.7424 25.969-182.42 48.453-270.28 14.758 44.728-4.2482 183.35-28.46 218.07-46.205z" fill="url(#u)" filter="url(#aj)"/>
  <path d="m-27.182 290.5c0 15.134-12.268 22.985-27.402 22.985s-33.586-16.686-33.586-31.819 12.268-27.402 27.402-27.402 33.586 21.103 33.586 36.237z" fill="url(#t)" stroke="#000" stroke-width="1.806"/>
  <path d="m320.79 75.749c7.4422-16.061 15.343-29.14 20.25-38.875 19.797-22.59 44.288-32.391 81.984-22.6 15.748 4.0901 25.181 17.887 38.604 28.093 4.2371 15.014 2.8946 21.126 3.0161 32.099 0.27778 25.073 2.3618 48.942 2.5397 73.635l-181.58-39.838 35.181-32.515z" fill="url(#s)"/>
  <path d="m299.89-71.167c-22.587-22.003-46.287-44.79-63.249-68.883-5.5326-6.1623-4.4099-15.047 1.5233-20.238 5.9101-5.171 15.878-5.2006 19.501 0.30303 9.674 14.443 26.911 45.27 39.133 51.628 6.9403 3.4469 6.7188-8.4816 6.4643-18.095 0.54497-18.567 2.1967-35.532 4.1434-56.316 1.8424-12.228-3.3423-16.462-9.7923-25.99-38.742-61.587-31.287-129.78-33.766-164.11 1.2353-16.338 24.709-21.993 27.73-0.54059-3.7407 45.39-8.8851 98.572 14.02 132.57 5.6971 9.2996 8.6294 13.342 12.118 4.5666 14.595-42.912 36.216-101.8 58.66-132.27 7.9351-14.129 35.975-2.4117 23.295 21.753-58.608 95.571-109.64 215.51-50.337 321.77 6.5683 6.6283 17.696 9.3353 20.866 0.79333 10.792-29.568 9.1848-52.942 15.911-85.125 1.3324-12.557 12.691-16.413 20.801-11.267 6.1744 3.9173 10.169 14.216 8.165 23.044-5.1623 29.926-18.117 71.968-37.127 123.43-6.4791 10.92-16.459 6.6139-22.574-1.5089-23.913-28.588-42.32-60.949-55.485-95.508z" fill="#520" stroke="#000" stroke-width="3.8875"/>
  <path d="m438.96-1.5282c4.5253-46.286 9.5958-76.89 17.961-112.26 6.7553-24.663 32.195-17.992 28.887 7.863-3.5411 17.298-39.574 131.5 2.6792 85.091 32.071-41.506 67.035-112.82 83.415-168.64 3.4116-10.39 3.3109-22.816-6.5184-27.244-59.969-52.624-40.27-146.76-38.19-162.89 2.4515-27.503 31.513-23.588 29.69 1.6676-13.118 62.563-9.1102 122.32 20.053 136.85 12.827 6.3064 18.978 3.422 26.351-7.2882 19.959-29.535 56.756-103.15 61.609-125.04 5.6481-25.481 37.251-22.269 26.281 12.914-9.9005 60.792-61.779 101.91-83.694 155.96-13.286 42.108-29.769 79.928-45.834 108.06-34.524 55.108 62.512-7.9578 77.348-16.786 26.804-10.713 39.884 11.774 9.4889 26.297-27.749 13.72-54.266 21.797-94.493 36.225-13.071 3.3722-27.217 14.82-33.462 24.931l-52.363 69.146c-23.369 23.273-37.837-12.6-29.207-44.868z" fill="#520" stroke="#000" stroke-width="4.069"/>
  <path transform="matrix(.68966 0 0 .68966 67.966 61.25)" d="m248 211.86c0 8.0081-6.4919 14.5-14.5 14.5s-14.5-6.4919-14.5-14.5 6.4919-14.5 14.5-14.5 14.5 6.4919 14.5 14.5z"/>
  <path transform="matrix(.68966 0 0 .68966 204.18 73.84)" d="m248 211.86c0 8.0081-6.4919 14.5-14.5 14.5s-14.5-6.4919-14.5-14.5 6.4919-14.5 14.5-14.5 14.5 6.4919 14.5 14.5z"/>
  <path transform="matrix(.78478 .35642 -.35642 .78478 84.17 76.528)" d="m-39.156 271.14c0 5.9295-6.7861 10.736-15.157 10.736s-15.157-4.8068-15.157-10.736 6.7861-10.736 15.157-10.736 15.157 4.8068 15.157 10.736z" fill="#fff" filter="url(#ag)"/>
  <g transform="translate(35.573)">
   <path d="m477.6 730.35c-5.1442 44.244-108.48 238.66-64.997 393.83 3.0869 9.1663-1.9049 19.679 1.0616 28 1.9452 5.4563 6.5588 12.034 7.8761 17.319 14.958 60.012 11.348 58.455 16.327 77.535 4.2711 9.5056-7.9169 25.025-13.896 38.115-6.9381 15.19-8.1492 25.494-8.572 32.966 12.868 11.61 79.632 6.6856 81.341 2.77-1.226-8.5112-7.4964-25.766-14.5-38.467-5.3687-9.7365-11.733-15.386-13.178-20.893-18.689-71.9-23.936-95.424-23.843-111.09-3.748-134.87 118.2-271.67 124.55-386.35l-92.167-33.734z" fill="url(#g)" stroke="url(#f)" stroke-width="4.216"/>
   <path d="m431.68 1274.7c-3.5306 6.0351-13.094 24.056-14.227 41.842 6.248 8.7283 57.14 7.4093 76.907 3.6586-0.42077-12.472-11.368-33.521-18.58-44.259-15.739 1.635-28.361 1.9947-44.1-1.2413z"/>
   <path transform="matrix(.79831 -.40401 .40401 .79831 -445.85 442.31)" d="m430.19 1307.6c-2.5218-1.5616 5.046-14.092 15.924-21.902 4.367-3.1383 10.277-4.8868 12.565-4.7056 1.9003 0.1504 3.0983 1.1197 3.8116 2.3195 0.30637 1.546-1.4877 4.0907-12.173 10.181-10.176 5.8-18.138 16.049-20.128 14.108z" fill="#fff" filter="url(#c)"/>
  </g>
  <path d="m271.77-377.53c5.0597-3.2625 11.421-1.3852 12.137 6.2687 1.1271 12.05-4.1536 34.514-2.8519 57.587 1.4451 25.614 9.2432 55.734 22.211 68.822" fill="none" filter="url(#af)" stroke="#fff" stroke-linecap="round" stroke-width="4.7"/>
  <path transform="matrix(1.0467 0 0 1.0467 -19.897 -2.4997)" d="m526.17-371.71c5.0597-3.2625 16.697 0.0793 17.568 7.7171 0.5553 4.8712-2.122 15.829-3.7789 30.02-1.7061 14.613-2.3958 32.609-1.9697 47.844 1.1116 39.746 16.485 59.72 34.522 65.563" fill="none" filter="url(#ab)" stroke="#fff" stroke-linecap="round" stroke-width="4.7"/>
  <path d="m244.47-158.1c4.6051-1.1039 5.6805-0.73687 9.66 3.1694 6.265 6.1499 13.884 31.027 38.433 36.575" fill="none" filter="url(#ah)" stroke="#fff" stroke-linecap="round" stroke-width="5.658"/>
  <path d="m396.1-117.88c5.3782 0.40946 11.936 9.4952 11.116 15.011-1.2914 8.6835-15.157 74.362-38.546 128.59" fill="none" filter="url(#y)" stroke="#fff" stroke-linecap="round" stroke-width="3.358"/>
  <path transform="matrix(1.0467 0 0 1.0467 -19.897 -2.4997)" d="m478.74-114.7c-2.6887-0.94497-6.9279-2.0026-10.286 0.0767-2.9973 1.856-9.6802 36.41-10.372 38.948-2.3106 8.4695-11.56 53.2-15.82 113.03" fill="none" filter="url(#al)" stroke="#fff" stroke-linecap="round" stroke-width="3.358"/>
  <path transform="matrix(1.0467 0 0 1.0467 -19.897 -2.4997)" d="m667.25-365.34c2.8312 0.88755 9.1007 3.0846 10.631 10.278 1.2516 5.8833-0.83829 13.764-3.1499 20.189-1.3941 3.8746-4.0142 17.037-12.548 33.665-8.0507 15.686-19.697 34.676-33.83 53.76-4.0425 5.4586-18.095 24.495-22.978 32.105-2.5296 3.942-9.8755 33.676-23.64 68.169-11.945 29.933-25.721 55.89-26.081 56.321" fill="none" filter="url(#aa)" stroke="#fff" stroke-linecap="round" stroke-width="5.258"/>
  <path transform="matrix(1.0467 0 0 1.0467 -19.897 -2.4997)" d="m647.85-99.374c-0.47504-0.25876-0.85571-5.4697-6.8478-5.9029-6.4216-0.4643-22.57 12.648-26.874 15.07-7.6505 4.3059-28.672 21.453-53.244 17.255" fill="none" filter="url(#z)" stroke="#fff" stroke-linecap="round" stroke-width="3.858"/>
  <path d="m382.16-368.51c3.5355-1.5772 7.7384-3.2085 13.096 1.8274 3.9312 3.6953 6.214 10.236 3.4611 14.243" fill="none" filter="url(#ai)" stroke="#fff" stroke-linecap="round" stroke-width="3.358"/>
  <path transform="matrix(.94388 -.3303 .3303 .94388 28.08 112.82)" d="m340.34-56.207c-0.23213 3.2079-0.77397 27.057 0.79553 30.836 2.2001 4.9756 4.1282 9.4351 7.1191 13.42 1.8305 2.3085 7.4201 5.9963 13.489 6.5217 3.2304 0.27968 7.7118-5.4568 9.1435-7.4864 0.39882-1.5213-5.8634 5.0898-11.138 2.9791-2.4738-0.64853-5.7764-1.2017-8.3524-4.6336s-5.5097-6.8828-7.6082-11.629c-2.3492-8.8353-0.68912-24.255-3.4485-30.008z" fill="#fff" filter="url(#ad)"/>
  <path transform="matrix(1.0467 0 0 1.0467 -19.897 -2.4997)" d="m503.71-39.549c-1.407 7.7313-9.36 19.582-13.782 25.863-4.4794 6.3626-7.0051 8.8187-11.124 13.179-3.5546 1.9637-7.2009 3.9346-12.198 1.2293-8.0134-4.3382-3.7467-14.198-4.2386-16.228 0.49248 10.066 2.1081 12.431 6.6249 13.587 6.9491 1.4216 13.026-6.0522 16.88-10.961 6.2746-8.2665 9.5667-14.174 13.036-18.969 0.30667-0.78882 2.9301-6.384 4.8014-7.6996z" fill="#fff" filter="url(#ac)"/>
  <path d="m312.52 137.2c7.2248 7.1747 9.259 29.435 10.516 54.132l-98.763-46.597c30.125-25.769 59.679-35.906 88.247-7.5359z" fill="url(#r)"/>
  <path d="m424.93 157.01c5.7441 5.7043 18.719 23.403 19.719 43.038l-68.625-33.49-23.635 1.0928c13.191-27.661 49.829-33.197 72.542-10.641z" fill="url(#q)"/>
  <path transform="matrix(.99826 .059 -.059 .99826 68.333 -65.815)" d="m1249.3 681.12c15.748 4.0901 26.782 22.061 40.206 32.267 7.9135 15.014 9.8345 26.497 13.708 37.338 8.9464 25.036 6.3806 3.8548 7.4625 33.363-15.554-60.482-71.258-94.204-120.12-104.52-33.172-7.0036-63.702-13.327-59.673-7.327 60.539-2.2922 43.706-9.3737 118.41 8.8788z" fill="url(#p)" filter="url(#ak)"/>
  <path d="m459.17 225.63c9.8647-11.231 61.465-31.236 64.928 3.332 1.562 15.592-5.9018 14.549-19.666 31.154-13.248 15.983-40.238 21.295-48.157 1.3727-8.3132-20.915-5.5334-26.262 2.8953-35.859z" fill="#c16629" stroke="#520" stroke-width="3.7"/>
  <path transform="matrix(1.1405 -.39638 .39638 1.1405 441.85 -87.426)" d="m-39.156 271.14c0 5.9295-6.7219 5.7001-15.093 5.7001s-15.221 0.22944-15.221-5.7001 6.7861-10.736 15.157-10.736 15.157 4.8068 15.157 10.736z" fill="#a40" filter="url(#h)" opacity=".82"/>
  <g transform="translate(1.6841 -11.789)" fill="#520">
   <path d="m467.55 266.22c-5.1212-27.632 26.47-40.339 41.221-17.19 0 0-14.11-9.5713-23.828-6.7773-12.93 3.7175-15.425 11.022-17.393 23.967z"/>
   <path d="m484.64 241.5s5.7301-2.679 9.6372 1.6899c1.0299 4.642-0.68332 10.779-2.3352 13.718 0 0 0.9012-8.689-0.94885-11.787-0.62293-1.043-6.0965-4.2475-6.3532-3.6213z"/>
  </g>
  <path d="m496.84 213.24c-18.905 1.9823-31.344 11.245-31.344 11.245 21.559-8.9154 46.876-15.42 55.914 1.9798 0 0-2.0189-7.0608-7.677-10.516s-13.001-2.9027-16.893-2.709z" fill="#fff" filter="url(#i)"/>
  <path transform="matrix(.00278 -.3624 .16953 .00595 307.38 1084.9)" d="m-39.156 271.14c0 5.9295-6.7861 10.736-15.157 10.736s-15.157-4.8068-15.157-10.736 6.7861-10.736 15.157-10.736 15.157 4.8068 15.157 10.736z" fill="#fff" filter="url(#b)" opacity=".81225"/>
  <path transform="matrix(-.00967 -.36228 .16963 .00011847 406.06 1123.7)" d="m-39.156 271.14c0 5.9295-6.7861 10.736-15.157 10.736s-15.157-4.8068-15.157-10.736 6.7861-10.736 15.157-10.736 15.157 4.8068 15.157 10.736z" fill="#fff" filter="url(#b)" opacity=".81225"/>
  <g transform="translate(-120 2.6572e-6)">
   <path d="m1187.6 741.91c-69.154 22.908-189.35 189.04 20.097 399.53 102.31 128.2-31.264 138.73-45.11 173.65-11.785 16.311-24.307 18.845-36.092 40.001 12.868 11.61 62.443 11.971 95.924 6.2325 1.7404-12.692-3.47-25.383-6.7991-38.075-9.1864-64.217 74.82-57.543 71.822-126.64l-22.545-56.098c-3.7481-134.87 8.525-250.19 14.871-364.87l-92.168-33.734z" fill="url(#o)" stroke="url(#n)" stroke-width="4.216"/>
   <path d="m1165.1 1314.8c-11.065 15.453-24.648 19.775-35.713 39.787 12.081 10.812 59.375 11.089 90.81 5.3938 1.634-11.958-4.7544-32.035-7.88-43.949-15.739 1.635-31.478 2.0042-47.216-1.2318z"/>
   <path d="m1142.2 1347.3c-2.5217-1.5616 5.0461-14.092 15.924-21.902 4.367-3.1383 10.277-4.8868 12.565-4.7056 1.9003 0.1504 3.0983 1.1197 3.8116 2.3195 0.3064 1.546-1.4877 4.0907-12.173 10.181-10.176 5.8-18.138 16.049-20.128 14.108z" fill="#fff" filter="url(#c)"/>
  </g>
  <path d="m323.32 427.45c2.5384-1.0702 29.866-8.2066 30.356-8.3588" fill="url(#m)" stroke="url(#l)" stroke-linecap="round" stroke-width="4.8"/>
  <path transform="matrix(-.07251 -.35508 .16707 -.02938 1111.5 1185.7)" d="m-39.156 271.14c0 5.9295-6.7861 10.736-15.157 10.736s-15.157-4.8068-15.157-10.736 6.7861-10.736 15.157-10.736 15.157 4.8068 15.157 10.736z" fill="#fff" filter="url(#b)" opacity=".81225"/>
  <path transform="matrix(-.07251 -.35508 .16707 -.02938 995.55 1142.5)" d="m-39.156 271.14c0 5.9295-6.7861 10.736-15.157 10.736s-15.157-4.8068-15.157-10.736 6.7861-10.736 15.157-10.736 15.157 4.8068 15.157 10.736z" fill="#fff" filter="url(#b)" opacity=".81225"/>
  <path d="m453.1 281.85c5.7441 5.7043 18.719 23.403 19.719 43.038l-68.625-33.49-23.635 1.0928c13.191-27.661 49.829-33.197 72.542-10.641z" fill="url(#k)"/>
  <path transform="translate(-89.073 -412.63)" d="m464.43 743.96c27.077-14.338 30.542-20.43 33.695-16.441 4.9646 6.2812-4.1234 20.637-18.248 32.043 9.9043-11.512 16.185-22.607 13.559-25.636-3.2371-3.7338-12.491 4.3637-29.006 10.034z" fill="#520" filter="url(#ae)" opacity=".56327"/>
  <path transform="matrix(.17891 0 0 .17891 326.2 177.18)" d="m248 211.86c0 8.0081-6.4919 14.5-14.5 14.5s-14.5-6.4919-14.5-14.5 6.4919-14.5 14.5-14.5 14.5 6.4919 14.5 14.5z" fill="#fff" filter="url(#j)"/>
  <path transform="matrix(.18972 0 0 .18972 188.34 162.89)" d="m248 211.86c0 8.0081-6.4919 14.5-14.5 14.5s-14.5-6.4919-14.5-14.5 6.4919-14.5 14.5-14.5 14.5 6.4919 14.5 14.5z" fill="#fff" filter="url(#j)"/>
 </g>
</svg>
